<svg id="Capa_1" enable-background="new 0 0 512 512" height="512" viewBox="0 0 512 512" width="512" xmlns="http://www.w3.org/2000/svg" xmlns:xlink="http://www.w3.org/1999/xlink"><linearGradient id="SVGID_1_" gradientUnits="userSpaceOnUse" x1="256" x2="256" y1="512" y2="0"><stop offset="0" stop-color="#fd5900"/><stop offset="1" stop-color="#ffde00"/></linearGradient><g><g><path d="m271 256c0-24.814-20.186-45-45-45s-45 20.186-45 45 20.186 45 45 45 45-20.186 45-45zm-45 15c-8.276 0-15-6.724-15-15s6.724-15 15-15 15 6.724 15 15-6.724 15-15 15zm225-150h-45v-106c0-8.291-6.709-15-15-15h-300c-24.814 0-45 20.186-45 45v422c0 24.814 20.186 45 45 45h300c8.291 0 15-6.709 15-15v-76h45c8.291 0 15-6.709 15-15v-270c0-8.291-6.709-15-15-15zm-75 361h-285c-8.276 0-15-6.724-15-15v-379.763c4.715 1.681 9.716 2.763 15 2.763h285zm0-422h-285c-8.276 0-15-6.724-15-15s6.724-15 15-15h285zm60 331h-30v-60h30zm0-90h-30v-60h30zm0-90h-30v-60h30zm-277.17 159.249c.092.077.176.148.269.222 19.83 13.321 43.228 20.486 67.282 20.486 7.632 0 15.352-.718 23.013-2.183 15.855-3.034 30.491-9.531 43.5-18.298.062-.049.135-.077.196-.126 25.774-17.444 44.665-44.502 50.684-75.956 7.559-39.565-4.761-80.01-32.959-108.208-28.184-28.213-68.73-40.518-108.208-32.959-47.388 9.067-85.313 46.992-94.38 94.38-7.559 39.565 4.761 80.01 32.959 108.208 5.44 5.44 11.387 10.206 17.644 14.434zm84.939-10.948c-19.488 3.734-38.511.707-55.503-7.253 8.14-12.704 22.19-21.048 37.734-21.048 15.698 0 29.837 8.529 37.934 21.453-6.425 3.032-13.127 5.502-20.165 6.848zm-106.07-106.07c6.665-34.863 35.669-63.867 70.532-70.532 6.006-1.143 11.982-1.714 17.886-1.714 23.804 0 46.274 9.199 63.486 26.411 21.475 21.475 30.483 51.138 24.697 81.372-3.402 17.791-12.676 34.008-25.529 46.56-13.618-20.839-37.103-34.328-62.771-34.328-25.648 0-49.118 13.467-62.743 34.279-.266-.26-.597-.412-.861-.676-21.474-21.474-30.483-51.137-24.697-81.372z" fill="url(#SVGID_1_)"/></g></g></svg>