<svg id="Capa_1" enable-background="new 0 0 512 512" height="512" viewBox="0 0 512 512" width="512" xmlns="http://www.w3.org/2000/svg" xmlns:xlink="http://www.w3.org/1999/xlink"><linearGradient id="SVGID_1_" gradientUnits="userSpaceOnUse" x1="256" x2="256" y1="436" y2="76"><stop offset="0" stop-color="#a93aff"/><stop offset="1" stop-color="#ff81ff"/></linearGradient><g><g><path d="m497 76h-482c-8.291 0-15 6.709-15 15v330c0 8.291 6.709 15 15 15h482c8.291 0 15-6.709 15-15v-330c0-8.291-6.709-15-15-15zm-15 330h-452v-240h452zm0-270h-452v-30h452zm-376 180h90c24.814 0 45-20.186 45-45v-30c0-24.814-20.186-45-45-45h-90c-24.814 0-45 20.186-45 45v30c0 24.814 20.186 45 45 45zm-15-75c0-8.276 6.724-15 15-15h90c8.276 0 15 6.724 15 15v30c0 8.276-6.724 15-15 15h-90c-8.276 0-15-6.724-15-15zm-15 135h45c8.291 0 15-6.709 15-15s-6.709-15-15-15h-45c-8.291 0-15 6.709-15 15s6.709 15 15 15zm150-30h-45c-8.291 0-15 6.709-15 15s6.709 15 15 15h45c8.291 0 15-6.709 15-15s-6.709-15-15-15zm60 30h45c8.291 0 15-6.709 15-15s-6.709-15-15-15h-45c-8.291 0-15 6.709-15 15s6.709 15 15 15zm105 0h45c8.291 0 15-6.709 15-15s-6.709-15-15-15h-45c-8.291 0-15 6.709-15 15s6.709 15 15 15z" fill="url(#SVGID_1_)"/></g></g></svg>