<?xml version="1.0" encoding="utf-8"?>
<!-- Generator: Adobe Illustrator 19.0.0, SVG Export Plug-In . SVG Version: 6.00 Build 0)  -->
<svg xmlns="http://www.w3.org/2000/svg" xmlns:xlink="http://www.w3.org/1999/xlink" version="1.1" id="Layer_1" x="0px" y="0px" viewBox="0 2 98 98" style="enable-background:new 0 2 98 98;" xml:space="preserve" width="512" height="512">
<style type="text/css">
	.st0{fill:url(#SVGID_1_);}
	.st1{fill:url(#SVGID_2_);}
</style>
<g>
	
		<linearGradient id="SVGID_1_" gradientUnits="userSpaceOnUse" x1="49.05" y1="95.3333" x2="49.05" y2="11.9673" gradientTransform="matrix(1 0 0 -1 0 104)">
		<stop offset="0" style="stop-color:#00EFD1"/>
		<stop offset="1" style="stop-color:#00ACEA"/>
	</linearGradient>
	<path class="st0" d="M91.6,47.5h-6.1V34.1c0-1.7-1.3-3-3-3h-6.9V16.5c0-1.7-1.3-3-3-3H15.3c-6.5,0-11.8,5.3-11.8,11.8   c0,0.5,0,1,0.1,1.5v55.7c0,5.5,4.5,10,10,10h69c1.7,0,3-1.3,3-3v-14h6c1.7,0,3-1.3,3-3v-22C94.6,48.8,93.2,47.5,91.6,47.5z    M15.3,19.5h54.3v11.6H15.3c-2.8,0-5.2-2.1-5.7-4.8V26H9.5c0-0.2,0-0.5,0-0.7C9.4,22.1,12.1,19.5,15.3,19.5z M79.6,86.5h-66   c-2.2,0-4-1.8-4-4V35.6c1.7,0.9,3.6,1.5,5.7,1.5h64.2v10.4H56.6c-1.7,0-3,1.3-3,3v22c0,1.7,1.3,3,3,3h23V86.5z M88.6,69.5h-29v-16   h29V69.5z"/>
	
		<linearGradient id="SVGID_2_" gradientUnits="userSpaceOnUse" x1="71.6" y1="95.3333" x2="71.6" y2="11.9673" gradientTransform="matrix(1 0 0 -1 0 104)">
		<stop offset="0" style="stop-color:#00EFD1"/>
		<stop offset="1" style="stop-color:#00ACEA"/>
	</linearGradient>
	<path class="st1" d="M71.6,66c2.5,0,4.5-2,4.5-4.5S74,57,71.6,57s-4.5,2-4.5,4.5S69.1,66,71.6,66z"/>
</g>
</svg>
