<svg id="Capa_1" enable-background="new 0 0 512 512" height="512" viewBox="0 0 512 512" width="512" xmlns="http://www.w3.org/2000/svg" xmlns:xlink="http://www.w3.org/1999/xlink"><linearGradient id="SVGID_1_" gradientUnits="userSpaceOnUse" x1="256" x2="256" y1="512" y2="0"><stop offset="0" stop-color="#fd5900"/><stop offset="1" stop-color="#ffde00"/></linearGradient><g><g><path d="m503.709 242.582-60-30c-2.08-1.04-4.38-1.582-6.709-1.582h-136v-30h136c2.329 0 4.629-.542 6.709-1.582l60-30c5.083-2.549 8.291-7.734 8.291-13.418s-3.208-10.869-8.291-13.418l-60-30c-2.08-1.04-4.38-1.582-6.709-1.582h-136v-76c0-8.291-6.709-15-15-15h-60c-8.291 0-15 6.709-15 15v136h-136c-2.329 0-4.629.542-6.709 1.582l-60 30c-5.083 2.549-8.291 7.734-8.291 13.418s3.208 10.869 8.291 13.418l60 30c2.08 1.04 4.38 1.582 6.709 1.582h136v241h-45c-8.291 0-15 6.709-15 15s6.709 15 15 15h180c8.291 0 15-6.709 15-15s-6.709-15-15-15h-45v-181h136c2.329 0 4.629-.542 6.709-1.582l60-30c5.083-2.549 8.291-7.734 8.291-13.418s-3.208-10.869-8.291-13.418zm-202.709-121.582h132.455l30 15-30 15h-132.455zm-90 90h-132.455l-30-15 30-15h132.455zm60 271h-30v-452h30zm162.455-211h-132.455v-30h132.455l30 15z" fill="url(#SVGID_1_)"/></g></g></svg>