<svg id="Capa_1" enable-background="new 0 0 512 512" height="512" viewBox="0 0 512 512" width="512" xmlns="http://www.w3.org/2000/svg" xmlns:xlink="http://www.w3.org/1999/xlink"><linearGradient id="SVGID_1_" gradientUnits="userSpaceOnUse" x1="256" x2="256" y1="512" y2="0"><stop offset="0" stop-color="#a93aff"/><stop offset="1" stop-color="#ff81ff"/></linearGradient><g><g><path d="m497 300h-46v-15c0-57.891-47.109-105-105-105-5.136 0-10.058.8-15 1.516v-46.516c0-8.291-6.709-15-15-15h-45v-15c0-57.891-47.109-105-105-105s-105 47.109-105 105v15h-46c-8.291 0-15 6.709-15 15v362c0 8.291 6.709 15 15 15h181 301c8.291 0 15-6.709 15-15v-182c0-8.291-6.709-15-15-15zm-166-88.482c4.849-.989 9.864-1.518 15-1.518 41.353 0 75 33.647 75 75v15h-90zm-240-106.518c0-41.353 33.647-75 75-75s75 33.647 75 75v15h-150zm90 210v167h-151v-332h31v15c0 8.291 6.709 15 15 15s15-6.709 15-15v-15h150v15c0 8.291 6.709 15 15 15s15-6.709 15-15v-15h30v40.532c-35.345 16.921-60 52.742-60 94.468v15h-45c-8.291 0-15 6.709-15 15zm120-89.617v74.617h-30v-15c0-24.404 11.896-45.912 30-59.617zm181 256.617h-271v-152h30v15c0 8.291 6.709 15 15 15s15-6.709 15-15v-15h150v15c0 8.291 6.709 15 15 15s15-6.709 15-15v-15h31z" fill="url(#SVGID_1_)"/></g></g></svg>